<?xml version="1.0" encoding="UTF-8"?>
<!-- Generator: Adobe Illustrator 25.2.3, SVG Export Plug-In . SVG Version: 6.00 Build 0)  -->
<svg xmlns="http://www.w3.org/2000/svg" xmlns:xlink="http://www.w3.org/1999/xlink" version="1.1" id="Capa_1" x="0px" y="0px" viewBox="0 0 512 512" style="enable-background:new 0 0 512 512;" xml:space="preserve" width="512" height="512">
<g>
	<g>
		<g>
			<path style="fill-rule:evenodd;clip-rule:evenodd;fill:#8F7ECE;" d="M419.203,336.149c-0.917,7.613,1.74,18.151-1.782,22.885     c-2.94,3.958-12.057,3.507-21.106,3.872c-16.229,0.646-31.696,2.144-47.858,2.075c-24.009-0.094-48.56-1.779-72.829-1.779     c-16.022,0-31.977,0.89-48.748,0.89c-32.672-0.005-65.406,0-98.987,0c-15.305,0-32.697-0.624-49.344,0     c-6.992,0.264-16.212-0.094-24.374-0.594c-8.261-0.51-15.662-2.24-18.432-6.243c-3.039-4.384-2.238-14.859-1.489-21.106     c31.097,0.725,62.377-0.594,94.529-0.594c10.309,0,20.902-0.116,31.216-0.596c19.307-0.9,44.669-0.294,65.987-0.298     c21.836,0,43.671,0.483,64.802,0.599C334.358,335.494,377.149,337.904,419.203,336.149z"/>
			<g>
				<path style="fill-rule:evenodd;clip-rule:evenodd;fill:#4D3D87;" d="M148.699,220.815c17.333-0.826,38.084,0.234,56.181,0.594      c18.242,0.36,36.987-0.195,55.885-0.298c27.462-0.146,55.545-0.991,83.234,0.594c4.003,0.229,8.781,0.458,13.673,0.599      c5.533,0.15,10.681-0.259,13.673,0.89c8.537,3.275,12.305,15.32,16.35,24.076c10.718,23.218,20.805,45.953,29.131,71.941      c1.639,5.099,3.62,12.791,1.784,17.533c-3.948,10.181-25.882,8.621-41.911,8.621c-34.005,0-66.956-0.72-99.879,0.596      c-16.929,0.675-33.096-1.109-49.048-1.488c-8.172-0.192-16.224,0.754-24.076,1.193c-8.266,0.456-16.542,0.424-24.973,0.296      c-15.714-0.236-32.497-0.89-49.64-0.895c-15.763,0-32.859,0.298-50.236,0.298c-14.568,0-40.657,1.895-44.29-8.621      c-1.671-4.833,0.549-12.414,2.077-17.242c7.692-24.305,18.338-49.204,29.133-72.232c3.584-7.642,8.761-22.191,17.538-24.67      c4.025-1.144,10.476-0.33,16.051-0.599C115.66,221.234,132.322,221.594,148.699,220.815z"/>
				<g>
					<path style="fill-rule:evenodd;clip-rule:evenodd;fill:#8F7ECE;" d="M195.963,235.678c-0.91,5.134-2.055,10.031-2.972,15.159       c-5.143,0.604-11.332,0.16-16.943,0.298c1.064-5.377,2.718-10.169,4.163-15.162       C185.637,236.053,190.386,235.449,195.963,235.678z"/>
					<path style="fill-rule:evenodd;clip-rule:evenodd;fill:#8F7ECE;" d="M213.797,236.272c-1.109,4.833-2.285,9.602-3.266,14.565       c-4.458,0-8.919,0-13.377,0c0.85-5.294,2.248-10.04,3.268-15.159C204.5,236.258,209.792,235.624,213.797,236.272z"/>
					<path style="fill-rule:evenodd;clip-rule:evenodd;fill:#8F7ECE;" d="M175.752,235.974c-1.518,4.927-2.635,10.25-4.163,15.162       c-5.974-0.02-13.439,0.025-18.432,0c2.004-4.643,3.719-9.565,5.353-14.568C164.282,236.393,170.019,236.184,175.752,235.974z"/>
					<path style="fill-rule:evenodd;clip-rule:evenodd;fill:#8F7ECE;" d="M232.231,236.568c0.202,4.752,0.705,9.205,0.887,13.969       c-6.432-0.19-12.217,0.269-18.425,0.301c0.956-5.089,2.285-9.801,3.564-14.565C223.07,236.218,227.25,236.792,232.231,236.568z       "/>
					<path style="fill-rule:evenodd;clip-rule:evenodd;fill:#8F7ECE;" d="M153.458,236.568c1.062,0.48-0.19,2.349-0.596,3.564       c-1.21,3.623-2.603,7.985-4.163,11.3c-6.541,0-13.079,0-19.617,0c1.632-5.104,3.805-9.666,5.649-14.568       C140.911,236.704,147.755,237.209,153.458,236.568z"/>
					<path style="fill-rule:evenodd;clip-rule:evenodd;fill:#8F7ECE;" d="M249.768,236.864c0.532,4.227,0.532,8.981,0.887,13.377       c-5.4-0.204-8.438,0.37-13.375,0.296c-0.685-4.163-0.549-9.156-0.89-13.673C239.799,236.748,245.406,236.953,249.768,236.864z"/>
					<path style="fill-rule:evenodd;clip-rule:evenodd;fill:#8F7ECE;" d="M129.973,236.864c-1.597,5.043-3.549,9.735-5.353,14.568       c-4.663-0.19-10.092,0.389-14.264-0.296c-0.914-0.325,0.604-1.903,1.188-2.977c1.676-3.076,3.719-7.214,4.754-10.997       C120.897,237.103,125.133,236.679,129.973,236.864z"/>
					<path style="fill-rule:evenodd;clip-rule:evenodd;fill:#8F7ECE;" d="M253.928,237.162c4.163,0,8.325,0,12.485,0       c0.964,4.288,1.713,8.791,2.676,13.079c-4.852,0-9.71,0-14.568,0C254.303,245.904,254.402,241.251,253.928,237.162z"/>
					<path style="fill-rule:evenodd;clip-rule:evenodd;fill:#8F7ECE;" d="M111.246,237.463c0.2,0,0.399,0,0.594,0       c-1.824,4.912-4.207,9.267-6.541,13.673c-4.458,0-8.917,0-13.375,0c0.646-2.164,1.624-4.242,2.674-6.243       c0.934-1.782,1.94-4.227,3.569-5.35C101.375,237.327,106.263,238.616,111.246,237.463z"/>
					<path style="fill-rule:evenodd;clip-rule:evenodd;fill:#8F7ECE;" d="M270.875,237.463c4.677,0.175,10.08-0.37,14.264,0.291       c0.486,4.673,1.903,8.406,2.679,12.783c-4.557-0.399-9.612-0.296-14.568-0.296C272.259,246.18,271.559,241.83,270.875,237.463z       "/>
					<path style="fill-rule:evenodd;clip-rule:evenodd;fill:#8F7ECE;" d="M289.302,237.754c5.673-0.217,10.432,0.473,16.054,0.303       c0.929,4.618,2.568,8.527,3.268,13.375c-5.232-0.614-11.085-0.604-16.643-0.895       C290.997,246.365,290.122,242.086,289.302,237.754z"/>
					<path style="fill-rule:evenodd;clip-rule:evenodd;fill:#8F7ECE;" d="M326.457,238.057c1.863,4.478,3.297,9.387,4.761,14.27       c-6.196-0.249-12.574-0.316-18.432-0.895c-0.734-4.614-2.088-8.616-2.972-13.079       C315.477,238.372,321.182,238.426,326.457,238.057z"/>
					<path style="fill-rule:evenodd;clip-rule:evenodd;fill:#8F7ECE;" d="M331.218,238.057c8.537,0.611,16.724-1.343,21.7,2.075       c3.791,2.617,4.774,8.537,6.834,13.38c-7.711-0.611-15.844-0.801-24.076-0.895       C334.042,247.917,332.652,242.956,331.218,238.057z"/>
					<path style="fill-rule:evenodd;clip-rule:evenodd;fill:#8F7ECE;" d="M249.768,254.705c0.441,4.904,1.146,9.547,2.08,13.969       c-5.841,0.19-10.785-0.515-16.648-0.298c-0.444-4.71-1.19-9.116-2.083-13.38C238.084,254.315,244.312,254.894,249.768,254.705z       "/>
					<path style="fill-rule:evenodd;clip-rule:evenodd;fill:#8F7ECE;" d="M253.633,254.705c4.357,0,8.717,0,13.079,0       c1.459,4.584,2.586,9.496,3.864,14.264c-5.05-0.005-10.22,0.113-14.863-0.296C255.456,263.582,254.177,259.508,253.633,254.705       z"/>
					<path style="fill-rule:evenodd;clip-rule:evenodd;fill:#8F7ECE;" d="M270.875,254.995c5.449-0.69,12.184-0.096,18.129-0.291       c1.809,4.729,3.083,9.996,5.052,14.56c-6.013,0.863-12.456-0.422-19.021,0C273.709,264.447,272.479,259.537,270.875,254.995z"/>
					<path style="fill-rule:evenodd;clip-rule:evenodd;fill:#8F7ECE;" d="M103.219,255.296c-1.25,4.791-3.288,8.801-5.052,13.079       c-4.362,0-8.722,0-13.079,0c1.634-4.51,3.502-8.786,5.052-13.38C94.702,254.899,98.531,255.525,103.219,255.296z"/>
					<path style="fill-rule:evenodd;clip-rule:evenodd;fill:#8F7ECE;" d="M229.259,254.995c0.584,4.372,1.245,8.665,1.779,13.084       c-5.942,0-11.889,0-17.833,0c-0.039-4.702,0.414-8.902,0.895-13.084C219.149,254.995,224.202,254.995,229.259,254.995z"/>
					<path style="fill-rule:evenodd;clip-rule:evenodd;fill:#8F7ECE;" d="M293.464,254.995c6.593,0.054,12.707,0.574,19.024,0.895       c1.328,4.917,2.938,9.55,4.163,14.568c-6.166-0.079-11.985-0.5-18.131-0.599C296.944,264.797,294.935,260.163,293.464,254.995z       "/>
					<path style="fill-rule:evenodd;clip-rule:evenodd;fill:#8F7ECE;" d="M170.399,255.296c-1.148,4.697-2.625,9.064-4.162,13.377       c-6.068-0.123-11.78,0.106-17.538,0.296c0.996-4.853,2.713-8.981,4.163-13.375       C159.035,255.823,164.292,255.131,170.399,255.296z"/>
					<path style="fill-rule:evenodd;clip-rule:evenodd;fill:#8F7ECE;" d="M192.695,255.296c-0.256,4.498-1,8.515-1.489,12.783       c-7.058-0.224-13.326,0.345-20.209,0.296c0.877-4.268,2.469-7.832,3.265-12.187c0.165-0.429,0.466-0.725,0.89-0.892       C181.004,255.296,186.847,255.296,192.695,255.296z"/>
					<path style="fill-rule:evenodd;clip-rule:evenodd;fill:#8F7ECE;" d="M209.937,255.296c-0.044,4.517-1.06,8.056-0.895,12.783       c-4.557,0-9.116,0-13.673,0c0.653-4.108,0.823-8.687,1.489-12.783C201.215,255.296,205.575,255.296,209.937,255.296z"/>
					<path style="fill-rule:evenodd;clip-rule:evenodd;fill:#8F7ECE;" d="M124.325,255.594c-1.454,4.493-3.494,8.397-4.756,13.079       c-5.449-0.195-10.881-0.419-16.645-0.298c1.375-4.37,3.29-8.202,4.458-12.781C113.03,255.594,118.676,255.594,124.325,255.594z       "/>
					<path style="fill-rule:evenodd;clip-rule:evenodd;fill:#8F7ECE;" d="M148.403,255.594c-1.213,4.729-2.977,8.916-4.461,13.375       c-6.62-0.116-13.754,0.279-19.913-0.296c1.306-4.537,3.149-8.544,4.458-13.079       C136.426,255.969,138.254,255.624,148.403,255.594z"/>
					<path style="fill-rule:evenodd;clip-rule:evenodd;fill:#8F7ECE;" d="M316.65,256.484c5.168-0.705,11.145,0.35,16.648,0.301       c1.794,4.638,3.103,9.774,4.754,14.563c-5.614-0.229-11.132-0.554-16.944-0.594C319.824,265.79,318.346,261.028,316.65,256.484       z"/>
					<path style="fill-rule:evenodd;clip-rule:evenodd;fill:#8F7ECE;" d="M338.052,256.785c7.61,0.614,16.081,0.365,23.487,1.188       c1.637,4.404,2.571,9.513,3.865,14.27c-6.388,0.044-14.777-0.486-21.705-0.895c-1.585-1.644-2.418-4.232-3.268-6.541       c-0.885-2.395-1.42-4.894-2.378-7.132C338.052,257.378,338.052,257.08,338.052,256.785z"/>
					<path style="fill-rule:evenodd;clip-rule:evenodd;fill:#8F7ECE;" d="M266.118,273.427c0.885,0.84,1.538,2.709,2.08,4.163       c1.518,4.069,2.753,9.111,3.862,13.974c-34.779-0.439-69.561-0.098-104.039,1.186c1.289-6.738,2.635-13.414,4.163-19.916       C203.593,271.769,233.133,272.451,266.118,273.427z"/>
					<path style="fill-rule:evenodd;clip-rule:evenodd;fill:#8F7ECE;" d="M99.056,272.533c-2.393,7.82-5.323,15.088-8.022,22.595       c-4.934-0.515-10.292-0.609-12.189-4.163c0.089-7.741,2.748-12.909,5.052-18.432C88.954,272.533,94.004,272.533,99.056,272.533       z"/>
					<path style="fill-rule:evenodd;clip-rule:evenodd;fill:#8F7ECE;" d="M104.114,272.533c4.182,0.478,9.057,0.259,13.67,0.301       c-1.41,7.805-3.625,14.807-5.649,21.998c-5.097,0.446-10.829,0.266-16.345,0.296c0.877-3.569,2.59-7.147,3.864-10.999       C101.006,280.045,101.61,275.495,104.114,272.533z"/>
					<path style="fill-rule:evenodd;clip-rule:evenodd;fill:#8F7ECE;" d="M168.021,272.833c-1.54,6.78-2.98,13.663-4.757,20.214       c-7.292,0.042-14.225,0.436-21.106,0.895c1.698-7.426,4.48-13.755,6.541-20.81       C155.432,273.326,161.514,272.868,168.021,272.833z"/>
					<path style="fill-rule:evenodd;clip-rule:evenodd;fill:#8F7ECE;" d="M144.241,273.132c-1.989,7.322-4.606,14.028-7.132,20.81       c-6.336,0.7-13.518,0.55-20.216,0.89c1.415-7.11,3.608-13.439,4.759-20.81c-0.015-0.505,0.219-0.769,0.594-0.89       C129.577,273.132,136.909,273.132,144.241,273.132z"/>
					<path style="fill-rule:evenodd;clip-rule:evenodd;fill:#8F7ECE;" d="M270.875,273.427c8.722-0.101,16.643,0.594,25.266,0.594       c2.038,5.984,3.736,12.315,5.35,18.728c-8.325-0.195-16.113-0.929-24.672-0.89       C275.074,285.476,273.164,279.263,270.875,273.427z"/>
					<path style="fill-rule:evenodd;clip-rule:evenodd;fill:#8F7ECE;" d="M300.601,274.322c7.182-0.054,13.585,0.675,20.806,0.594       c1.73,6.593,3.68,12.961,5.649,19.322c-7.061-0.374-14.038-0.825-21.106-1.19C304.51,286.462,302.326,280.619,300.601,274.322z       "/>
					<path style="fill-rule:evenodd;clip-rule:evenodd;fill:#8F7ECE;" d="M325.567,275.51c5.077-0.618,11.154,0.34,16.648,0.296       c3.137,5.878,4.367,13.668,6.837,20.216c-5.348,0.389-11.28-1.21-17.239-1.19C329.715,288.409,327.62,281.979,325.567,275.51z"/>
					<path style="fill-rule:evenodd;clip-rule:evenodd;fill:#8F7ECE;" d="M346.971,275.806c6.228,0.611,13.215,0.456,19.322,1.19       c0.594,2.642,1.725,5.713,2.378,8.919c0.636,3.115,1.521,7.573,0.296,9.806c-2.319,4.249-10.59,1.24-15.457,1.19       C351.829,289.375,349.071,282.923,346.971,275.806z"/>
				</g>
				<path style="opacity:0.75;fill-rule:evenodd;clip-rule:evenodd;fill:#FFFFFF;" d="M184.967,301.37      c5.449-0.966,14.871-0.296,22.296-0.296c14.903,0,28.566,0.594,43.097,0.594c5.806,0,16.118-1.577,20.216,0.89      c4.022,2.42,5.461,10.905,6.242,17.542c0.153,1.286,0.779,5.383-0.296,6.834c-1.565,2.102-8.31,1.052-12.189,0.89      c-26.784-1.077-49.864-0.592-78.776-0.592c-3.13,0-10.195,0.961-11.591-1.784c-1.469-2.883,1.415-8.121,2.674-12.184      C178.556,307.078,178.746,302.474,184.967,301.37z"/>
				<g>
					<path style="fill-rule:evenodd;clip-rule:evenodd;fill:#FF5000;" d="M99.222,320.527c0.355-3.384,0.939-10.457,4.707-8.971       c2.208,0.865,1.954,5.903,1.671,9.269c-0.35,4.189-0.719,8.012-1.937,11.391c-0.567,1.56-1.673,2.908-2.782,2.849       c-2.134-0.121-3.448-3.117-4.38-4.712c-2.368-4.02-3.775-6.277-6.05-10.746c-0.84-1.651-2.344-4.623-0.9-6.348       c0.315-0.375,1.304-0.744,1.883-0.7c2.129,0.15,3.534,2.201,4.678,3.588C97.462,317.791,98.366,319.058,99.222,320.527z"/>
					<path style="fill-rule:evenodd;clip-rule:evenodd;fill:#FF5000;" d="M71.353,314.075c-3.068-2.694-7.477-6.987-11.324-8.333       c-1.015-0.355-2.925-0.784-4.177,0.345c-0.776,0.71-0.786,2.364-0.49,3.5c0.759,2.898,2.787,5.533,4.648,7.8       c1.76,2.139,3.734,3.928,5.626,5.543c1.525,1.304,3.859,3.258,6.082,4.502c1.858,1.045,5.614,2.716,7.812,1.24       c2.519-1.693,1.878-6.593,1.548-9.944c-0.463-4.702-1.602-11.692-5.116-16.667c-0.924-1.306-2.359-2.625-3.709-2.134       c-2.255,0.818-1.915,4.771-1.9,6.496C70.369,309.096,70.525,311.351,71.353,314.075z"/>
				</g>
			</g>
			<g>
				<path style="fill-rule:evenodd;clip-rule:evenodd;fill:#FFFFFF;" d="M42.55,341.142c3.261-0.944,8.786,0.584,14.119,2.403      c2.285,0.776,5.964,2.1,5.493,4.219c-0.554,2.548-4.968,1.713-6.543,1.405c-4.998-0.966-10.834-3.145-13.599-5.217      C41.641,343.242,41.956,341.847,42.55,341.142z"/>
				<path style="fill-rule:evenodd;clip-rule:evenodd;fill:#FFFFFF;" d="M68.294,338.273c0.136-5.473,11.886-3.169,10.526,1.168      c-0.592,1.88-6.694,2.886-9.257,1.4C68.644,340.307,68.27,339.222,68.294,338.273z"/>
				<path style="fill-rule:evenodd;clip-rule:evenodd;fill:#FFFFFF;" d="M80.388,346.281c-0.153-1.94,2.351-3.229,5.156-3.514      c2.252-0.229,6.671,0.365,6.097,2.908c-0.242,1.129-2.12,2.425-4.444,2.723C84.474,348.748,80.59,348.775,80.388,346.281z"/>
			</g>
		</g>
		<g>
			<g>
				<path style="fill-rule:evenodd;clip-rule:evenodd;fill:#8F7ECE;" d="M107.978,22.363c22.595-1.079,45.99,0.439,68.368,0      c22.107-0.436,44.662-0.611,67.178,0.294c20.31,0.821,43.311,1.486,66.586,1.486c14.082,0,33.983-1.429,49.941-1.19      c9.227,0.146,15.029,0.929,17.833,6.543c2.267,4.522,1.76,12.554,1.488,22.294c-0.219,7.808-0.143,17.052-0.296,24.374      c-0.343,16.049-0.892,31.277-0.892,48.455c-0.005,16.298,0.094,32.095-0.301,48.452c-0.424,17.754,2.748,43.583-8.022,49.938      c-3.268,1.925-10.445,2.08-16.944,2.08c-6.516,0-13.163-0.414-18.435-0.594c-37.31-1.286-75.153-1.19-112.362-1.19      c-24.118,0.005-48.129-1.185-74.611-1.185c-17.944,0-37.761,0.734-54.993-2.083c-5.747-0.936-12.239-2.965-14.267-6.538      c-2.674-4.722-3.495-12.628-4.162-20.515c-3.325-39.163-1.19-78.531-1.19-120.687c0-7.618,0.545-16.497,0.895-23.78      c0.395-8.266,0.165-17.158,3.564-20.805c2.613-2.8,8.227-3.529,13.678-4.16C97.013,22.853,102.913,22.602,107.978,22.363z"/>
				<path style="fill-rule:evenodd;clip-rule:evenodd;fill:#4D3D87;" d="M99.655,32.169c10.065-1.195,23.181,0.288,34.185,0.594      c11.231,0.311,22.356,0.813,33.291,1.19c22.301,0.769,45.048,0.36,67.771-0.596c22.78-0.959,43.878-1.484,67.774-1.484      c10.661,0,22.04,0.296,34.185,0.296c5.582,0,11.595-0.476,16.648,0c5.257,0.498,9.996,2.203,11.894,5.35      c2.42,4.029,1.779,13.924,1.779,19.913c0,7.96-0.296,14.669-0.296,21.109c0,14.979,0.892,28.468,0.892,42.212      c0,15.024,0.123,27.418,0.594,42.508c0.214,6.876-0.214,14.127,0,20.805c0.21,6.566,0.486,16.658-2.08,20.515      c-2.097,3.14-7.273,5.163-13.079,5.05c-16.576-0.32-35.809,1.358-52.612,0.594c-23.928-1.084-47.698,0.296-69.563,0.301      c-24.734,0-46.661,0.554-71.342-0.301c-16.325-0.564-35.726,0.54-52.612-0.594c-6.063-0.407-12.335-0.431-15.159-2.674      c-3.298-2.625-4.207-11.246-4.754-18.134c-1.742-21.816-0.818-44.455,0.296-66.285c0.744-14.578,0.744-28.258,1.488-43.996      c0.311-6.57,0.296-13.772,0.296-21.7c0-11.49-1.474-24.303,9.806-24.672C99.251,32.164,99.461,32.194,99.655,32.169z"/>
			</g>
			<g>
				<g>
					<g>
						<path style="opacity:0.75;fill-rule:evenodd;clip-rule:evenodd;fill:#FFFFFF;" d="M128.904,122.737        c0.959,4.998,1.981,11.401,2.713,17.298c0.555,4.367,2.068,8.732,0.486,11.936c-2.635-0.091-4.31-2.664-5.944-4.204        c-5.067-4.789-10.654-9.501-15.827-14.519C114.053,127.997,119.953,124.293,128.904,122.737z"/>
						<path style="fill-rule:evenodd;clip-rule:evenodd;fill:#8F7ECE;" d="M126.73,152.629c-8.039,1.486-17.313,2.016-25.217,2.25        c-1.272-7.007,1.715-12.885,5.119-17.338c0.17-0.03,0.335-0.059,0.505-0.086c3.184,2.541,6.593,5.084,9.947,7.697        C120.377,147.713,124.355,149.601,126.73,152.629z"/>
						<path style="fill-rule:evenodd;clip-rule:evenodd;fill:#EFAD1B;" d="M135.935,124.943        c12.875-0.052,23.884,6.676,29.552,15.773c1.917,3.068,3.394,6.871,3.687,11.835c0.961,16.103-15.018,32.226-32.164,34.555        c-13.35,1.809-24.985-4.734-30.533-14.225c-1.922-3.278-4.007-7.401-3.721-12.064c2.437-1.109,5.427-1.279,8.32-1.565        c5.582-0.559,11.305-1.294,16.963-2.474c2.344-0.488,6.672-0.698,7.83-1.743c0.917-0.826,0.801-4.715,0.766-6.728        c-0.116-7.342-1.41-16.332-1.309-22.575C135.41,125.382,135.615,125.118,135.935,124.943z"/>
						<g>
							<path style="fill-rule:evenodd;clip-rule:evenodd;fill:#B1BC00;" d="M174.936,146.343c-0.867-2.295-0.799-5.723-0.734-9.141         c0.052-2.962-0.584-7.162,1.025-8.426c2.319-1.41,7.044-0.579,10.597-0.449c9.533,0.353,18.656,0.143,29.13-0.042         c5.967-0.108,12.786,0.116,19.435,0.047c2.906-0.027,6.644-0.022,9.727,0.143c3.044,0.165,6.962,0.461,8.086,2.016         c1.55,2.154,1.084,6.585,0.821,9.841c-0.21,2.447-0.345,7.366-1.725,8.515c-1.526,1.269-7.127,0.9-9.841,0.826         c-16.049-0.461-32.016-1.161-48.275-1.469c-3.214-0.057-6.59-0.052-9.73-0.141         C180.424,147.981,177.191,148.381,174.936,146.343z"/>
							<path style="fill-rule:evenodd;clip-rule:evenodd;fill:#8F7ECE;" d="M219.714,155.054c0.118-0.052,0.16-0.261,0.434-0.296         c5.483-0.744,9.106,0.606,15.738,0.774c3.157,0.071,13.234-0.419,14.723,2.085c1.02,1.715,0.259,5.567,0.081,7.807         c-0.222,2.787-0.466,4.927-0.651,7.67c-0.276,4.14,0.135,12.325-2.913,13.88c-2.115,1.084-5.493,0.2-8.042,0.111         c-2.898-0.101-5.415-0.126-8.066-0.121c-4.983,0.015-12.535,0.744-14.349-2.849c-0.88-1.74-0.52-4.877-0.315-7.776         c0.17-2.4,0.315-5.032,0.449-7.398c0.15-2.738,0.071-4.512,0.182-7.61C217.079,158.788,217.614,155.929,219.714,155.054z"/>
							<g>
								<path style="opacity:0.75;fill-rule:evenodd;clip-rule:evenodd;fill:#FFFFFF;" d="M211.766,157.869          c-0.175,1.193-0.33,2.398-0.21,3.817c-12.544,0.074-24.354-0.816-36.827-0.835c-0.202-1.04-0.247-3.648,0.323-4.779          C187.222,156.758,199.842,156.863,211.766,157.869z"/>
								<path style="opacity:0.75;fill-rule:evenodd;clip-rule:evenodd;fill:#FFFFFF;" d="M210.772,166.529          c0.338,0.823,0.059,2.787-0.214,3.818c-12.5,0.296-24.145-0.535-36.524-0.404c0.249-1.274-0.032-2.95,0.409-4.079          C186.593,166.034,198.211,166.894,210.772,166.529z"/>
								<path style="opacity:0.75;fill-rule:evenodd;clip-rule:evenodd;fill:#FFFFFF;" d="M210.228,176.789          c-0.165,1.341-0.17,2.805-0.409,4.079c-11.667-0.715-23.541-1.148-35.9-0.964c-0.116-1.765-0.106-3.426,0.059-4.983          C186.068,175.535,197.851,176.545,210.228,176.789z"/>
							</g>
						</g>
						<g>
							<path style="fill-rule:evenodd;clip-rule:evenodd;fill:#B1BC00;" d="M272.516,147.483c-0.865-2.294-0.791-5.722-0.729-9.138         c0.054-2.963-0.582-7.162,1.028-8.426c2.314-1.407,7.041-0.579,10.595-0.449c9.533,0.35,18.661,0.14,29.133-0.044         c5.967-0.106,12.788,0.118,19.428,0.054c2.908-0.035,6.652-0.03,9.73,0.135c3.049,0.165,6.962,0.463,8.086,2.018         c1.555,2.154,1.089,6.583,0.821,9.841c-0.202,2.445-0.345,7.366-1.725,8.515c-1.523,1.267-7.127,0.902-9.836,0.826         c-16.054-0.458-32.021-1.158-48.282-1.469c-3.214-0.059-6.583-0.054-9.728-0.14         C278.007,149.123,274.773,149.522,272.516,147.483z"/>
							<path style="fill-rule:evenodd;clip-rule:evenodd;fill:#8F7ECE;" d="M317.296,156.198c0.118-0.054,0.168-0.259,0.434-0.296         c5.488-0.744,9.111,0.611,15.738,0.771c3.155,0.079,13.234-0.411,14.723,2.093c1.02,1.71,0.256,5.56,0.084,7.807         c-0.224,2.78-0.468,4.919-0.653,7.662c-0.276,4.148,0.135,12.325-2.913,13.883c-2.114,1.084-5.488,0.197-8.037,0.111         c-2.903-0.096-5.422-0.126-8.071-0.121c-4.983,0.015-12.535,0.744-14.346-2.849c-0.882-1.737-0.522-4.877-0.318-7.776         c0.175-2.403,0.323-5.033,0.449-7.401c0.15-2.736,0.071-4.51,0.19-7.608C314.661,159.937,315.196,157.078,317.296,156.198z"/>
							<g>
								<path style="opacity:0.75;fill-rule:evenodd;clip-rule:evenodd;fill:#FFFFFF;" d="M309.348,159.018          c-0.175,1.185-0.33,2.398-0.209,3.812c-12.544,0.071-24.354-0.818-36.825-0.836c-0.2-1.042-0.249-3.647,0.32-4.781          C284.809,157.899,297.427,158.007,309.348,159.018z"/>
								<path style="opacity:0.75;fill-rule:evenodd;clip-rule:evenodd;fill:#FFFFFF;" d="M308.355,167.673          c0.34,0.821,0.059,2.785-0.207,3.82c-12.508,0.293-24.147-0.54-36.529-0.407c0.251-1.269-0.03-2.952,0.406-4.079          C284.178,167.178,295.791,168.042,308.355,167.673z"/>
								<path style="opacity:0.75;fill-rule:evenodd;clip-rule:evenodd;fill:#FFFFFF;" d="M307.812,177.93          c-0.168,1.343-0.168,2.807-0.409,4.081c-11.67-0.71-23.543-1.143-35.898-0.964c-0.121-1.765-0.106-3.428,0.054-4.978          C283.651,176.678,295.431,177.694,307.812,177.93z"/>
							</g>
						</g>
					</g>
					<path style="fill-rule:evenodd;clip-rule:evenodd;fill:#EFAD1B;" d="M152.073,61.32c-1.099-3.204-1.545-7.815-0.175-10.08       c2.253-1.503,7.172-0.84,10.676-1.07c9.671-0.646,19.346-0.865,29.027-1.338c31.985-1.575,63.013-1.36,93.824-0.15       c5.171,0.204,15.088-0.616,17.251,2.028c2.299,2.814,1.725,10.866,0.325,12.12c-1.651,1.474-5.927,1.148-9.631,1.129       c-8.843-0.054-20.956,0-28.531-0.059c-13.385-0.106-25.185-0.924-37.3-1.175c-18.992-0.399-37.949-0.486-57.31-0.074       c-3.142,0.069-6.381,0.141-9.575,0.079C157.825,62.675,154.495,63.225,152.073,61.32z"/>
					<path style="opacity:0.75;fill-rule:evenodd;clip-rule:evenodd;fill:#FFFFFF;" d="M286.258,73.674       c-21.345-0.089-42.735-0.069-64.062-0.288c-39.743-0.422-81.289-0.232-123.669,1.848l0.875,6.437       c19.396-0.675,38.478-1.745,57.194-2.174c44.48-1.015,86.657,0.113,128.918,0.48c21.301,0.18,42.72-0.052,64.097,0.54       c0.505-2.215,1.23-4.325,1.075-6.859C328.776,74.805,307.595,73.765,286.258,73.674z"/>
					<path style="opacity:0.75;fill-rule:evenodd;clip-rule:evenodd;fill:#FFFFFF;" d="M100.924,86.359       c43.257-0.214,207.179,4.259,249.936,4.744c0.059,2.038-0.2,3.857-0.315,5.772c-20.411-1.309-164.543-3.475-185.762-4.064       c-21.091-0.584-42.523-0.205-63.912-0.72C100.784,90.102,100.476,87.973,100.924,86.359z"/>
					<path style="opacity:0.75;fill-rule:evenodd;clip-rule:evenodd;fill:#FFFFFF;" d="M350.754,105.131       c-0.19,2.46-0.205,5.037,0.042,7.798c-33.961-1.627-214.121-5.099-249.07-5.38c-0.111-2.447-0.131-4.826-0.51-7.455       C136.364,100.182,316.409,103.926,350.754,105.131z"/>
				</g>
				<g>
					<g>
						<path style="fill-rule:evenodd;clip-rule:evenodd;fill:#FFFFFF;" d="M366.603,41.115c2.708,0.555,1.91,6.647,1.274,10.45        c-0.468,2.815-1.528,5.863-3.554,5.028c-1.094-0.441-1.483-2.405-1.703-3.864c-0.52-3.399-0.135-9.296,1.289-10.625        C364.57,41.485,365.674,40.933,366.603,41.115z"/>
						<path style="fill-rule:evenodd;clip-rule:evenodd;fill:#FFFFFF;" d="M366.098,65.393c1.444,2.179,1.185,7.766-2.238,6.632        C360.632,70.956,363.414,61.334,366.098,65.393z"/>
					</g>
					<g>
						<path style="fill-rule:evenodd;clip-rule:evenodd;fill:#FFFFFF;" d="M86.82,164.881c2.77,2.329,4.35,16.961-0.658,17.192        c-4.084,0.175-5.183-12.766-2.645-16.199C84.173,164.989,84.853,164.644,86.82,164.881z"/>
						<path style="fill-rule:evenodd;clip-rule:evenodd;fill:#FFFFFF;" d="M87.486,188.345c4.549-0.735,5.215,10.454,0.991,10.58        c-1.785,0.054-2.304-1.131-2.98-3.305C84.508,192.412,84.301,188.86,87.486,188.345z"/>
					</g>
				</g>
			</g>
		</g>
	</g>
	<g>
		<g>
			<g>
				<path style="fill-rule:evenodd;clip-rule:evenodd;fill:#8F7ECE;" d="M501.429,289.072l-3.409-6.91l-184.9,136.504      l-116.487-45.65l-7.014,5.447c0,0,0.616,8.022,0,8.022c-0.624,0,92.631,40.798,92.631,40.798l28.182,8.515l10.526-2.322      l182.645-130.868C499.62,299.512,498.896,293.301,501.429,289.072z"/>
			</g>
			<path style="fill-rule:evenodd;clip-rule:evenodd;fill:#FF5000;" d="M193.624,376.614c-1.079,2.689-1.464,6.068-2.378,8.917     c10.519,2.674,20.524,6.432,30.321,10.405c23.775,9.641,47.188,19.746,71.044,30.321c7.09,3.145,13.555,8.342,22.885,5.649     c3.948-1.136,8.572-4.813,12.783-7.726c27.563-19.058,56.44-38.853,83.234-58.266c29.175-21.136,57.63-43.341,88.584-63.013     c1.93-1.232,4.239-3.229,6.837-2.679c-0.035,2.79-2.519,4.539-4.163,6.242c-11.48,11.916-26.193,21.717-39.831,31.807     c-31.432,23.245-62.332,45.763-95.418,68.668c-11.795,8.163-24.31,16.308-37.16,24.374c-4.192,2.63-8.971,5.575-13.377,6.834     c-7.108,2.033-14.994-1.156-21.7-3.27c-17.318-5.456-32.347-11.84-48.45-19.021c-9.035-4.032-21-9.516-30.622-14.27     c-4.648-2.302-9.456-4.853-15.154-7.43c-4.293-1.944-12.488-4.892-13.678-8.626c-2.743-8.591,5.437-12.801,10.997-16.345     c12.515-7.97,25.089-18.341,36.862-26.456c26.018-17.942,50.688-33.421,75.801-50.833c20.482-14.198,41.638-27.898,61.534-43.992     c1.755-1.419,3.919-3.209,5.944-4.756c2.243-1.715,5.326-4.498,7.729-4.458c1.24,0.02,2.541,0.23,3.877,0.558     c0.874,0.215,0.156,2.24,1.051,2.535c0.82,0.271,3.251-1.192,4.075-0.886c2.404,0.893,4.804,1.871,7.051,2.549     c4.118,1.243,8.172,2.486,12.177,3.735c0.962,0.3-0.068,1.429,0.889,1.729c0.477,0.15,2.943-0.528,3.419-0.378     c5.916,1.868,11.737,3.754,17.514,5.682c0.877,0.293,0.873,1.491,1.748,1.786c0.966,0.325,2.812-0.253,3.777,0.075     c12.635,4.296,25.137,8.825,38.054,13.825c3.132,1.211,6.561,2.511,10.104,3.896c0.88,0.344,0.678,1.385,1.569,1.74     c0.447,0.178,1.985-0.335,2.434-0.155c2.733,1.098,5.49,2.244,8.192,3.436c2.504,1.109,5.558,2.834,5.644,4.458     c0.192,3.413-9.247,7.877-11.591,9.516c-12.059,8.416-25.239,17.693-36.859,25.858c-17.466,12.276-32.245,23.679-47.858,35.671     c-15.884,12.204-31.216,23.995-47.264,36.564c-9.782,7.665-23.659,18.395-36.265,26.462c-4.493,2.869-10.016,7.127-15.753,6.834     c-4.532-0.232-10.24-4.103-14.568-6.247c-13.813-6.827-28.842-13.18-43.696-18.723c-10.44-3.894-20.625-7.45-30.617-10.999     C213.2,384.606,202.829,381.728,193.624,376.614z"/>
		</g>
		<g>
			<path style="fill:#FFFFFF;" d="M225.53,371.956c2.639-1.654,5.227-3.384,7.633-4.954c1.217-1.198,1.41-2.432,0.643-3.408     c-0.91-1.143-2.107-1.244-3.248-0.549c-2.743,1.671-5.442,3.423-8.126,5.188c-0.821,0.535-1.185,1.4-0.89,2.374     C222.205,372.782,224.68,372.486,225.53,371.956z"/>
			<path style="fill:#FFFFFF;" d="M238.683,352.163c1.131-0.54,6.24-5.062,6.979-5.725c2.662-2.395-0.177-5.829-2.893-3.729     c-2.302,1.779-4.49,3.711-6.728,5.577C233.848,350.534,235.76,353.553,238.683,352.163z"/>
			<path style="fill:#FFFFFF;" d="M271.4,364.585c2.445-1.215,4.483-3.029,6.383-4.549c1.289-1.499,1.4-2.743,0.505-3.727     c-0.922-0.996-2.174-1.092-3.514-0.012c-1.878,1.516-3.803,2.955-5.831,4.264C266.241,362.3,268.447,366.058,271.4,364.585z"/>
			<path style="fill:#FFFFFF;" d="M261.573,350.194c2.184-1.425,4.219-3.078,5.984-4.387c1.203-1.314,1.567-2.42,0.68-3.583     c-0.892-1.181-2.154-1.186-3.243-0.444c-2.08,1.427-4.069,2.972-6.058,4.513c-1.42,1.104-1.735,2.203-1.09,3.347     C258.515,350.825,260.045,351.19,261.573,350.194z"/>
			<path style="fill:#FFFFFF;" d="M248.157,372.4c2.073-1.393,4.012-2.982,5.806-4.338c1.168-1.269,1.309-2.479,0.515-3.428     c-0.934-1.109-2.139-1.215-3.229-0.448c-2.041,1.439-4,3.007-5.947,4.572C242.828,370.756,245.288,374.319,248.157,372.4z"/>
			<path style="fill:#FFFFFF;" d="M285.659,343.873c-1.516,0.976-1.949,2.055-1.338,3.228c1.607,3.078,5.321,0.18,8.029-1.92     c1.016-1.084,1.361-2.117,0.631-3.206C291.436,339.681,289.321,341.519,285.659,343.873z"/>
			<path style="fill:#FFFFFF;" d="M263.624,326.966c2.642-1.649,5.227-3.384,7.635-4.954c1.215-1.195,1.41-2.432,0.641-3.408     c-0.084-0.103-0.17-0.19-0.256-0.274c-3.911,2.578-7.835,5.176-11.773,7.79C260.74,327.715,262.845,327.449,263.624,326.966z"/>
			<path style="fill:#FFFFFF;" d="M309.493,319.595c2.445-1.215,4.483-3.029,6.383-4.55c1.289-1.498,1.4-2.743,0.503-3.719     c-0.914-1.003-2.169-1.099-3.512-0.02c-1.876,1.516-3.803,2.955-5.829,4.263C304.335,317.31,306.541,321.069,309.493,319.595z"/>
			<path style="fill:#FFFFFF;" d="M295.943,304.65c0.665,1.191,2.194,1.55,3.724,0.555c2.184-1.424,4.219-3.078,5.986-4.382     c1.2-1.316,1.565-2.42,0.68-3.588c-0.488-0.641-1.084-0.929-1.703-0.941c-2.738,1.871-5.474,3.729-8.207,5.565     C295.544,302.777,295.404,303.701,295.943,304.65z"/>
			<path style="fill:#FFFFFF;" d="M286.253,327.41c2.07-1.39,4.012-2.982,5.806-4.333c1.161-1.274,1.306-2.484,0.513-3.428     c-0.931-1.114-2.139-1.22-3.233-0.451c-2.036,1.439-3.995,3.004-5.94,4.574C280.925,325.766,283.384,329.335,286.253,327.41z"/>
			<path style="fill:#FFFFFF;" d="M330.444,300.192c1.016-1.085,1.363-2.115,0.633-3.199c-1.548-2.299-3.657-0.458-7.324,1.89     c-1.516,0.978-1.949,2.058-1.336,3.229C324.022,305.19,327.736,302.292,330.444,300.192z"/>
			<path style="fill:#FFFFFF;" d="M292.641,396.044c-2.741,1.671-5.442,3.421-8.123,5.188c-0.823,0.54-1.183,1.405-0.892,2.371     c0.663,2.178,3.137,1.883,3.988,1.353c2.642-1.649,5.227-3.384,7.635-4.956c1.215-1.195,1.409-2.43,0.641-3.408     C294.98,395.455,293.789,395.347,292.641,396.044z"/>
			<path style="fill:#FFFFFF;" d="M303.864,381.846c1.131-0.54,6.24-5.062,6.979-5.723c2.662-2.393-0.177-5.831-2.891-3.729     c-2.304,1.779-4.493,3.709-6.73,5.575C299.029,380.217,300.941,383.241,303.864,381.846z"/>
			<path style="fill:#FFFFFF;" d="M333.483,397.584c2.445-1.215,4.488-3.029,6.383-4.552c1.289-1.496,1.4-2.741,0.508-3.719     c-0.919-1-2.174-1.099-3.517-0.02c-1.876,1.518-3.803,2.957-5.829,4.264C328.325,395.3,330.53,399.058,333.483,397.584z"/>
			<path style="fill:#FFFFFF;" d="M323.657,383.197c2.184-1.429,4.219-3.083,5.986-4.384c1.205-1.314,1.565-2.428,0.68-3.588     c-0.895-1.183-2.154-1.188-3.243-0.439c-2.075,1.419-4.071,2.967-6.058,4.513c-1.414,1.099-1.737,2.203-1.089,3.344     C320.598,383.83,322.131,384.19,323.657,383.197z"/>
			<path style="fill:#FFFFFF;" d="M313.328,397.185c-2.036,1.444-3.995,3.004-5.939,4.577c-2.475,1.991-0.015,5.56,2.854,3.635     c2.07-1.385,4.012-2.98,5.806-4.333c1.166-1.272,1.311-2.479,0.513-3.426C315.63,396.525,314.427,396.416,313.328,397.185z"/>
			<path style="fill:#FFFFFF;" d="M271.774,382.846c-2.28,1.745,0.027,5.338,2.541,3.842c2.154-1.279,4.187-2.782,5.952-3.978     c2.539-2.898-0.36-5.397-2.546-4.002C275.683,380.003,273.689,381.378,271.774,382.846z"/>
			<path style="fill:#FFFFFF;" d="M347.742,376.873c-1.515,0.976-1.949,2.055-1.336,3.229c1.605,3.076,5.324,0.18,8.032-1.923     c1.013-1.079,1.363-2.115,0.628-3.204C353.519,372.68,351.41,374.524,347.742,376.873z"/>
			<path style="fill:#FFFFFF;" d="M354.653,393.52c-1.518,0.971-1.949,2.051-1.338,3.224c0.434,0.826,1.018,1.215,1.693,1.306     c2.578-1.974,5.037-3.879,7.312-5.654c-0.059-0.259-0.17-0.515-0.345-0.774C360.43,389.323,358.318,391.167,354.653,393.52z"/>
			<path style="fill:#FFFFFF;" d="M332.418,411.984c-1.518,0.974-1.95,2.053-1.336,3.224c0.015,0.029,0.032,0.049,0.052,0.079     c2.723-1.804,5.483-3.704,8.231-5.653C337.855,408.091,335.797,409.818,332.418,411.984z"/>
			<path style="fill:#FFFFFF;" d="M421.697,344.612c-1.548-2.299-3.657-0.458-7.324,1.895c-1.516,0.974-1.949,2.053-1.336,3.224     c0.665,1.274,1.696,1.518,2.863,1.22c2.046-1.57,4.084-3.135,6.122-4.69C422.158,345.716,422.074,345.167,421.697,344.612z"/>
			<path style="fill:#FFFFFF;" d="M293.839,363.16c2.42-1.701,6.053-4.365,4.155-6.602c-0.9-1.065-2.289-1.075-3.768,0.096     c-1.181,0.934-2.368,1.898-3.389,2.997C288.777,361.876,291.566,364.764,293.839,363.16z"/>
			<path style="fill:#FFFFFF;" d="M325.71,359.966c2.639-1.649,5.225-3.379,7.633-4.954c1.215-1.198,1.414-2.432,0.641-3.403     c-0.909-1.143-2.1-1.249-3.246-0.55c-2.743,1.666-5.442,3.418-8.126,5.183c-0.823,0.539-1.183,1.405-0.89,2.371     C322.383,360.792,324.857,360.496,325.71,359.966z"/>
			<path style="fill:#FFFFFF;" d="M346.047,327.405c-2.304,1.779-4.493,3.709-6.733,5.577c-2.189,2.245-0.279,5.269,2.644,3.874     c1.131-0.54,6.243-5.062,6.982-5.723C351.599,328.741,348.76,325.308,346.047,327.405z"/>
			<path style="fill:#FFFFFF;" d="M372.609,356.378c2.445-1.215,4.48-3.029,6.383-4.557c1.289-1.491,1.4-2.736,0.501-3.719     c-0.914-0.996-2.169-1.099-3.509-0.015c-1.878,1.513-3.803,2.952-5.836,4.266C367.448,354.093,369.657,357.851,372.609,356.378z"/>
			<path style="fill:#FFFFFF;" d="M368.417,330.234c-0.895-1.176-2.154-1.185-3.243-0.439c-2.08,1.422-4.069,2.972-6.058,4.512     c-1.415,1.099-1.738,2.203-1.09,3.347c0.665,1.185,2.198,1.55,3.724,0.552c2.184-1.429,4.224-3.081,5.986-4.384     C368.942,332.509,369.302,331.4,368.417,330.234z"/>
			<path style="fill:#FFFFFF;" d="M351.429,352.201c-2.043,1.439-4.003,3.002-5.947,4.572c-2.474,1.999-0.015,5.562,2.854,3.635     c2.073-1.385,4.012-2.979,5.806-4.33c1.166-1.274,1.311-2.479,0.515-3.428C353.724,351.535,352.524,351.429,351.429,352.201z"/>
			<path style="fill:#FFFFFF;" d="M309.868,337.857c-2.28,1.747,0.03,5.341,2.539,3.847c2.159-1.284,4.19-2.787,5.954-3.983     c2.538-2.898-0.36-5.397-2.546-4C313.777,335.018,311.783,336.396,309.868,337.857z"/>
			<path style="fill:#FFFFFF;" d="M316.369,417.606c-1.548-2.3-3.657-0.456-7.324,1.895c-1.516,0.973-1.947,2.058-1.336,3.224     c0.084,0.168,0.18,0.303,0.271,0.434c0.887,0.335,1.757,0.613,2.598,0.789c1.649-0.414,3.578-1.913,5.158-3.137     C316.754,419.725,317.099,418.69,316.369,417.606z"/>
			<path style="fill:#FFFFFF;" d="M331.933,318.171c2.42-1.696,6.053-4.365,4.163-6.602c-0.907-1.065-2.297-1.069-3.776,0.099     c-1.181,0.934-2.366,1.895-3.386,2.994C326.87,316.889,329.663,319.775,331.933,318.171z"/>
			<path style="fill:#FFFFFF;" d="M232.808,384.355c-0.895-1.183-2.154-1.193-3.243-0.444c-2.031,1.387-3.973,2.898-5.912,4.407     c1.799,0.636,3.613,1.279,5.432,1.92c1.079-0.809,2.105-1.605,3.044-2.3C233.333,386.625,233.693,385.516,232.808,384.355z"/>
			<path style="fill:#FFFFFF;" d="M248.891,389.227c1.607,3.081,5.326,0.185,8.034-1.918c1.01-1.084,1.355-2.119,0.626-3.204     c-1.545-2.299-3.657-0.456-7.322,1.898C248.714,386.975,248.28,388.054,248.891,389.227z"/>
			<path style="fill:#FFFFFF;" d="M204.069,375.209c2.415-1.703,6.048-4.372,4.157-6.602c-0.902-1.065-2.297-1.075-3.776,0.091     c-1.18,0.939-2.366,1.898-3.386,2.999C199.002,373.92,201.794,376.809,204.069,375.209z"/>
			<path style="fill:#FFFFFF;" d="M262.569,398.688c-0.905-1.065-2.294-1.075-3.773,0.096c-0.631,0.495-1.264,1.013-1.871,1.548     c1.696,0.641,3.391,1.296,5.089,1.959C263.05,401.104,263.545,399.839,262.569,398.688z"/>
			<path style="fill:#FFFFFF;" d="M374.12,371.99c-2.304,1.779-4.493,3.704-6.728,5.572c-2.194,2.245-0.283,5.269,2.639,3.879     c1.134-0.545,6.248-5.067,6.982-5.723C379.673,373.321,376.838,369.891,374.12,371.99z"/>
			<path style="fill:#FFFFFF;" d="M391.966,356.678c-1.183,0.934-2.368,1.898-3.391,2.997c-2.06,2.225,0.73,5.114,3.007,3.509     c2.415-1.698,6.048-4.367,4.155-6.602C394.834,355.518,393.442,355.508,391.966,356.678z"/>
			<path style="fill:#FFFFFF;" d="M436.297,256.161c1.143,2.196,3.364,1.346,5.528-0.084c-1.839-0.621-3.685-1.235-5.528-1.853     C435.947,254.838,435.942,255.483,436.297,256.161z"/>
			<path style="fill:#FFFFFF;" d="M341.549,281.225c2.442-1.22,4.483-3.034,6.383-4.557c1.284-1.493,1.402-2.738,0.5-3.719     c-0.917-1.003-2.166-1.099-3.51-0.02c-1.875,1.515-3.8,2.955-5.833,4.263C336.386,278.938,338.594,282.697,341.549,281.225z"/>
			<path style="fill:#FFFFFF;" d="M365.068,262.34c1.015-1.08,1.365-2.115,0.631-3.199c-1.545-2.299-3.657-0.456-7.322,1.895     c-1.516,0.973-1.95,2.058-1.338,3.224C358.65,267.337,362.364,264.439,365.068,262.34z"/>
			<path style="fill:#FFFFFF;" d="M360.331,322.119c2.642-1.651,5.227-3.384,7.64-4.954c1.21-1.196,1.41-2.435,0.636-3.409     c-0.905-1.143-2.1-1.245-3.243-0.55c-2.748,1.668-5.442,3.423-8.128,5.183c-0.823,0.54-1.183,1.405-0.887,2.378     C357.006,322.947,359.481,322.648,360.331,322.119z"/>
			<path style="fill:#FFFFFF;" d="M376.582,299.004c1.131-0.535,6.245-5.06,6.979-5.718c2.662-2.396-0.173-5.829-2.893-3.729     c-2.302,1.779-4.49,3.709-6.728,5.572C371.747,297.375,373.659,300.401,376.582,299.004z"/>
			<path style="fill:#FFFFFF;" d="M406.206,314.75c2.445-1.222,4.483-3.031,6.378-4.552c1.289-1.498,1.405-2.743,0.508-3.724     c-0.919-0.998-2.169-1.099-3.512-0.015c-1.876,1.516-3.808,2.95-5.834,4.263C401.042,312.463,403.248,316.221,406.206,314.75z"/>
			<path style="fill:#FFFFFF;" d="M403.041,292.382c-0.895-1.176-2.154-1.186-3.243-0.431c-2.078,1.414-4.066,2.965-6.058,4.513     c-1.414,1.096-1.732,2.196-1.089,3.339c0.67,1.185,2.198,1.55,3.724,0.554c2.184-1.424,4.224-3.083,5.991-4.387     C403.566,294.659,403.926,293.55,403.041,292.382z"/>
			<path style="fill:#FFFFFF;" d="M382.96,322.562c2.075-1.39,4.01-2.982,5.809-4.337c1.163-1.269,1.309-2.479,0.515-3.428     c-0.932-1.109-2.139-1.22-3.234-0.446c-2.041,1.439-4,3.004-5.944,4.569C377.632,320.918,380.092,324.482,382.96,322.562z"/>
			<path style="fill:#FFFFFF;" d="M347.033,303.852c2.159-1.282,4.187-2.78,5.952-3.975c2.543-2.898-0.36-5.402-2.546-4.007     c-2.038,1.299-4.032,2.674-5.949,4.143C342.21,301.752,344.519,305.35,347.033,303.852z"/>
			<path style="fill:#FFFFFF;" d="M420.46,294.035c-1.516,0.978-1.949,2.058-1.336,3.224c1.609,3.083,5.323,0.185,8.032-1.92     c1.01-1.079,1.361-2.11,0.628-3.199C426.242,289.841,424.127,291.682,420.46,294.035z"/>
			<path style="fill:#FFFFFF;" d="M366.559,280.326c2.418-1.703,6.055-4.372,4.158-6.607c-0.9-1.062-2.294-1.07-3.773,0.096     c-1.18,0.934-2.368,1.898-3.388,2.999C361.495,279.041,364.284,281.925,366.559,280.326z"/>
			<path style="fill:#FFFFFF;" d="M398.427,277.132c2.639-1.654,5.225-3.386,7.638-4.956c1.21-1.195,1.41-2.435,0.636-3.408     c-0.909-1.141-2.1-1.244-3.248-0.549c-2.74,1.673-5.434,3.423-8.123,5.188c-0.823,0.535-1.183,1.4-0.89,2.374     C395.105,277.957,397.58,277.661,398.427,277.132z"/>
			<path style="fill:#FFFFFF;" d="M410.75,256.346c1.134-0.54,6.245-5.062,6.98-5.723c0.734-0.663,1.04-1.402,1.055-2.083     c-1.429-0.451-2.864-0.904-4.308-1.351c-2.169,1.696-4.249,3.51-6.371,5.279C405.92,254.717,407.83,257.736,410.75,256.346z"/>
			<path style="fill:#FFFFFF;" d="M441.734,272.296c2.44-1.22,4.481-3.029,6.378-4.55c1.289-1.498,1.405-2.743,0.505-3.719     c-0.919-1.003-2.174-1.104-3.509-0.02c-1.878,1.516-3.803,2.955-5.836,4.259C436.568,270.011,438.776,273.77,441.734,272.296z"/>
			<path style="fill:#FFFFFF;" d="M421.054,277.573c2.078-1.39,4.012-2.98,5.809-4.338c1.163-1.269,1.309-2.479,0.512-3.428     c-0.929-1.107-2.134-1.215-3.228-0.446c-2.043,1.439-4.002,3.004-5.947,4.569C415.726,275.929,418.185,279.492,421.054,277.573z"/>
			<path style="fill:#FFFFFF;" d="M387.399,258.865c2.159-1.279,4.187-2.782,5.952-3.978c2.543-2.898-0.355-5.397-2.548-4.002     c-2.038,1.294-4.032,2.669-5.947,4.138C382.576,256.767,384.885,260.361,387.399,258.865z"/>
			<path style="fill:#FFFFFF;" d="M389.087,334.766c-1.543-2.297-3.657-0.453-7.324,1.9c-1.516,0.974-1.95,2.053-1.336,3.224     c1.604,3.078,5.323,0.18,8.027-1.92C389.471,336.891,389.816,335.856,389.087,334.766z"/>
			<path style="fill:#FFFFFF;" d="M390.827,245.127c1.594-1.122,3.709-2.669,4.424-4.229c-1.644-0.614-3.285-1.178-4.887-1.585     c-0.887,0.72-1.764,1.469-2.543,2.304C385.76,243.843,388.55,246.727,390.827,245.127z"/>
			<path style="fill:#FFFFFF;" d="M484.032,278.388c-2.474,1.994-0.012,5.562,2.857,3.638c2.07-1.385,4.01-2.979,5.804-4.332     c0.791-0.865,1.099-1.696,0.978-2.44c-1.237-0.491-2.457-0.974-3.672-1.449c-0.01,0.005-0.015,0.01-0.025,0.015     C487.939,275.258,485.977,276.819,484.032,278.388z"/>
			<path style="fill:#FFFFFF;" d="M464.969,278.876c2.159-1.284,4.185-2.782,5.949-3.978c2.543-2.898-0.359-5.402-2.546-4.007     c-2.038,1.299-4.032,2.674-5.947,4.143C460.146,276.781,462.455,280.372,464.969,278.876z"/>
			<path style="fill:#FFFFFF;" d="M407.354,332.028c-2.307,1.785-4.493,3.709-6.731,5.577c-2.193,2.245-0.281,5.269,2.639,3.874     c1.134-0.539,6.25-5.062,6.984-5.722C412.904,333.367,410.07,329.934,407.354,332.028z"/>
			<path style="fill:#FFFFFF;" d="M426.198,325.926c-1.185,0.934-2.366,1.895-3.389,2.994c-2.061,2.228,0.725,5.111,2.999,3.512     c2.418-1.703,6.055-4.367,4.158-6.602C429.066,324.766,427.676,324.756,426.198,325.926z"/>
			<path style="fill:#FFFFFF;" d="M449.965,299.199c2.659-2.39-0.177-5.823-2.893-3.724c-2.302,1.779-2.598,2.635-4.833,4.503     c-2.189,2.245-0.279,5.269,2.644,3.879C446.012,303.312,449.231,299.862,449.965,299.199z"/>
			<path style="fill:#FFFFFF;" d="M464.871,301.952c2.184-1.425,4.227-3.078,5.986-4.387c1.205-1.311,1.565-2.42,0.68-3.583     c-0.894-1.181-2.149-1.186-3.243-0.441c-2.08,1.42-4.069,2.97-6.058,4.513c-1.415,1.104-1.735,2.201-1.089,3.349     C461.82,302.587,463.345,302.947,464.871,301.952z"/>
			<path style="fill:#FFFFFF;" d="M451.456,324.157c2.073-1.385,4.012-2.98,5.806-4.333c1.166-1.274,1.309-2.484,0.515-3.433     c-0.934-1.109-2.134-1.215-3.228-0.446c-2.041,1.439-4.002,3.004-5.947,4.569C446.128,322.518,448.588,326.077,451.456,324.157z"/>
			<path style="fill:#FFFFFF;" d="M427.501,315.75c2.159-1.284,4.187-2.782,5.952-3.977c2.543-2.898-0.355-5.402-2.548-4.003     c-2.036,1.294-4.032,2.672-5.942,4.138C422.683,313.656,424.987,317.249,427.501,315.75z"/>
			<path style="fill:#FFFFFF;" d="M488.964,295.635c-1.508,0.964-1.939,2.028-1.355,3.189c2.746-1.925,5.469-3.83,8.138-5.693     C494.252,291.857,492.222,293.54,488.964,295.635z"/>
			<path style="fill:#FFFFFF;" d="M444.349,282.679c-2.068,2.226,0.725,5.109,3.004,3.51c2.413-1.703,6.048-4.367,4.153-6.602     c-0.9-1.065-2.289-1.075-3.768,0.096C446.552,280.616,445.369,281.575,444.349,282.679z"/>
		</g>
		<path style="fill-rule:evenodd;clip-rule:evenodd;fill:#4D3D87;" d="M376.444,263.323c3.127-0.668,8.532,1.035,12.19,2.376    c18.277,6.731,32.245,13.299,49.643,21.109c2.96,1.331,6.977,2.901,9.811,4.458c2.859,1.57,6.817,4.579,6.836,7.137    c0.035,4.175-9.35,9.286-12.189,11.295c-12.034,8.502-22.331,15.792-35.371,23.484c-2.612,1.535-5.377,3.46-8.029,3.569    c-3.184,0.121-6.693-1.927-10.107-3.569c-9.51-4.582-17.286-8.961-27.048-13.382c-8.601-3.889-18.521-8.357-27.351-13.375    c-2.46-1.395-6.942-3.808-7.132-6.242c-0.311-3.997,8.184-8.766,10.701-10.696c7.684-5.907,15.987-12.714,24.078-18.136    c4.158-2.783,8.411-6.001,13.377-7.731C375.998,263.569,376.143,263.389,376.444,263.323z"/>
	</g>
	<g>
		<g>
			<path style="fill-rule:evenodd;clip-rule:evenodd;fill:#8F7ECE;" d="M472.237,365.324c-12.02,3.056-23.585,6.095-33.855,10.777     c-14.023,6.39-26.085,14.977-37.268,23.474c-23.585,17.917-44.127,38.175-67.641,55.474     c-11.701,8.611-23.989,16.751-39.112,21.274c-14.984,4.48-32.463,6.964-52.748,5.276c-19.832-1.646-37.798-6.137-52.117-13.281     c-13.999-6.982-25.764-16.073-29.239-32.679c23.132-1.139,45.746-5.681,60.969-17.557c5.538-4.318,13.518-13.577,10.156-22.563     c-3.773-10.077-19.603-11.253-31.277-9.656c-8.655,1.198-15.817,4.155-21.806,7.258c-13.382,6.933-23.834,15.948-26.782,34.602     c-28.948-0.123-56.546-3.889-78.541-11.534c-22.425-7.793-40.233-19.758-52.955-35.548c-6.568-8.135-11.541-17.414-11.896-29.865     c-0.409-14.405,5.252-24.781,12.064-32.593c5.56-6.381,12.101-11.31,19.608-15.103c0,0,4.722-10.388,4.732-10.462     c-2.087,0.315-5.698,1.563-8.039,2.78c-10.137,5.252-18.622,12.029-25.296,20.709c-7.117,9.269-11.975,22.267-11.09,36.002     c0.865,13.348,5.533,23.302,12.451,32.209c13.175,16.968,31.62,29.939,55.744,38.597c23.839,8.549,52.302,13.109,83.769,13.025     c4.512,25.022,26.459,39.191,51.952,46.929c21.044,6.386,45.665,8.466,66.505,6.388c6.903-0.685,13.431-2.366,20.157-3.056     c6.671-0.69,13.749-1.518,21.064-1.708c15.056-0.397,31.287,1.181,45.606,0.463c7.214-0.365,14.198-1.314,20.852-2.233     c22.565-3.135,45.436-9.153,64.072-18.048c3.233-1.543,6.686-3.036,6.634-5.789c-0.123-6.896-11.455-0.377-13.289,0.355     c-14.947,5.974-30.525,10.516-46.333,13.496c-22.286,4.195-47.289,5.176-73.772,3.677c29.047-16.391,52.225-39.048,78.009-60.166     c18.637-15.275,37.939-30.752,64.092-38.449c3.904-1.148,7.978-2.354,12.82-3.712c3.152-0.882,11.039-1.331,11.231-5.89     C481.913,362.615,475.576,364.469,472.237,365.324z M178.527,402.07c9.225-5.469,21.034-9.412,32.913-8.823     c5.284,0.264,11.706,2.162,12.5,5.696c1.287,5.723-6.637,11.975-9.671,14.193c-13.873,10.137-33.35,12.865-54.052,14.341     C161.529,414.947,169.485,407.425,178.527,402.07z"/>
			<path style="opacity:0.75;fill-rule:evenodd;clip-rule:evenodd;fill:#FFFFFF;" d="M472.237,365.324     c-12.02,3.056-23.585,6.095-33.855,10.777c-14.023,6.39-26.085,14.977-37.268,23.474c-23.585,17.917-44.127,38.175-67.641,55.474     c-11.701,8.611-23.989,16.751-39.112,21.274c-14.984,4.48-32.463,6.964-52.748,5.276c-19.832-1.646-37.798-6.137-52.117-13.281     c-13.999-6.982-25.764-16.073-29.239-32.679c23.132-1.139,45.746-5.681,60.969-17.557c5.538-4.318,13.518-13.577,10.156-22.563     c-3.773-10.077-19.603-11.253-31.277-9.656c-8.655,1.198-15.817,4.155-21.806,7.258c-13.382,6.933-23.834,15.948-26.782,34.602     c-28.948-0.123-56.546-3.889-78.541-11.534c-22.425-7.793-40.233-19.758-52.955-35.548c-6.568-8.135-11.541-17.414-11.896-29.865     c-0.409-14.405,5.252-24.781,12.064-32.593c5.56-6.381,12.101-11.31,19.608-15.103c0,0,4.722-10.388,4.732-10.462     c-1.789,0.2-5.698,1.563-8.039,2.78c-10.137,5.252-18.622,12.029-25.296,20.709c-7.117,9.269-11.975,22.267-11.09,36.002     c0.865,13.348,5.533,23.302,12.451,32.209c13.175,16.968,31.62,29.939,55.744,38.597c23.839,8.549,52.302,13.109,83.769,13.025     c4.512,25.022,26.459,39.191,51.952,46.929c21.044,6.386,45.665,8.466,66.505,6.388c6.903-0.685,13.431-2.366,20.157-3.056     c6.671-0.69,13.749-1.518,21.064-1.708c15.056-0.397,31.287,1.181,45.606,0.463c7.214-0.365,14.198-1.314,20.852-2.233     c22.565-3.135,45.436-9.153,64.072-18.048c3.233-1.543,6.686-3.036,6.634-5.789c-0.123-6.896-11.455-0.377-13.289,0.355     c-14.947,5.974-30.525,10.516-46.333,13.496c-22.286,4.195-47.289,5.176-73.772,3.677c29.047-16.391,52.225-39.048,78.009-60.166     c18.637-15.275,37.939-30.752,64.092-38.449c3.904-1.148,7.978-2.354,12.82-3.712c3.152-0.882,11.039-1.331,11.231-5.89     C481.913,362.615,475.576,364.469,472.237,365.324z M178.527,402.07c9.225-5.469,21.034-9.412,32.913-8.823     c5.284,0.264,11.706,2.162,12.5,5.696c1.287,5.723-6.637,11.975-9.671,14.193c-13.873,10.137-33.35,12.865-54.052,14.341     C161.529,414.947,169.485,407.425,178.527,402.07z"/>
		</g>
		<g>
			<path style="fill-rule:evenodd;clip-rule:evenodd;fill:#8F7ECE;" d="M464.264,444.033c-8.865,4.515-17.732,9.03-26.622,13.762     c1.003,2.716,1.888,5.407,3.117,8.158c10.915-4.429,32.601-11.731,44.756-23.721c4.917-4.843,9.01-13.508,1.41-18.984     c-6.982-5.02-23.055,1.429-24.436,11.536C462.042,438,463.296,440.59,464.264,444.033z"/>
			<g>
				<path style="fill-rule:evenodd;clip-rule:evenodd;fill:#FFFFFF;" d="M469.772,440.91c2.334,0.239,10.61-3.478,8.931-6.516      c-1.119-2.021-4.36-0.091-6.302,0.887c-1.488,0.759-5.215,1.755-4.729,4.153C467.924,440.738,469.129,440.844,469.772,440.91z"/>
				<path style="fill-rule:evenodd;clip-rule:evenodd;fill:#FFFFFF;" d="M481.267,425.051c-2.164-1.274-5.331,1.24-4.463,3.265      C477.898,430.836,485.016,427.284,481.267,425.051z"/>
			</g>
		</g>
		<g>
			<path style="fill-rule:evenodd;clip-rule:evenodd;fill:#8F7ECE;" d="M480.944,372.508c-9.627,2.492-19.258,4.983-29.044,7.332     c-1.06-2.701-2.174-5.303-3.078-8.17c11.11-3.918,32.191-12.83,49.238-11.911c6.888,0.382,15.699,4.15,13.634,13.281     c-1.9,8.387-18.21,14.213-25.944,7.566C483.295,378.492,482.507,375.734,480.944,372.508z"/>
			<g>
				<path style="fill-rule:evenodd;clip-rule:evenodd;fill:#FFFFFF;" d="M487.14,371.189c1.585-1.728,10.25-4.426,11.011-1.038      c0.508,2.252-3.209,2.962-5.313,3.509c-1.614,0.407-5.062,2.142-6.292,0.025C485.88,372.542,486.711,371.672,487.14,371.189z"/>
				<path style="fill-rule:evenodd;clip-rule:evenodd;fill:#FFFFFF;" d="M506.262,375.455c-0.766,2.376-4.818,2.598-5.498,0.503      C499.899,373.353,507.595,371.296,506.262,375.455z"/>
			</g>
		</g>
	</g>
	<g>
		<g>
			<path style="fill-rule:evenodd;clip-rule:evenodd;fill:#8F7ECE;" d="M52.64,372.074c-0.747,2.568-1.131,5.178-2.255,7.707     c-3.063-0.801-5.752-1.809-9.335-3.234c-1.809-0.719-8.961-2.945-7.021-5.259C35.351,369.693,49.611,371.153,52.64,372.074z"/>
			<path style="fill:#B1BC00;" d="M152.635,409.527c8.845,1.858,17.614,3.833,26.654,5.412c0.651,0.111,1.361,0.244,2.105,0.375     c3.697-4.537,2.773-9.607,1.484-14.728c-9.193-2.743-18.691-4.658-28.007-7.031c-6.975-1.774-13.989-3.421-20.978-5.07     c-0.818,5.353-1.649,10.701-3.652,15.914C137.692,406.237,145.162,407.967,152.635,409.527z"/>
			<path style="fill:#B1BC00;" d="M45.702,378.376c4.173,2.883,11.859,5.316,18.203,7.327c6.036,1.927,12.19,3.862,17.607,5.427     c14.343,4.158,28.928,8.271,43.607,12c-0.121-0.079-0.256-0.136-0.387-0.214c1.476-5.222,2.388-10.511,3.48-15.773     c-2.99-0.715-5.979-1.435-8.951-2.184c-17.784-4.454-35.836-8.251-53.413-11.896c-5.91-1.225-12.108-2.797-18.122-1.959     C46.651,373.479,45.946,375.906,45.702,378.376z"/>
			<g>
				<path style="fill:#4D3D87;" d="M183.747,408.692c0.37-1.903,2.63-3.093,5.037-2.654l9.35,1.701      c2.413,0.439,4.064,2.344,3.685,4.251l0,0c-0.37,1.9-2.625,3.096-5.038,2.659l-9.348-1.703      C185.021,412.504,183.372,410.602,183.747,408.692L183.747,408.692z"/>
				<path style="fill-rule:evenodd;clip-rule:evenodd;fill:#4D3D87;" d="M124.778,381.464c2.297-0.895,4.981-0.103,7.305,0.244      c11.576,1.691,23.226,4.054,35.545,7.208c2.164,0.55,4.212,1.104,7.137,2.053c4.357,1.415,8.485,3.229,7.615,7.167      c-0.195,0.9-0.929,2.815-2.743,2.595c-2.203-0.261-1.765-3.835-3.009-4.944c-1.04-0.944-4.039-1.328-6.371-1.969      c-6.265-1.745-12.426-3.529-18.804-4.949c-9.414-2.107-18.356-3.428-25.079-5.841      C125.708,382.795,124.672,382.772,124.778,381.464z"/>
				<path style="fill:#4D3D87;" d="M125.118,403.13c1.708,0.424,3.416,0.845,5.121,1.269c2.004-5.212,2.834-10.561,3.652-15.914      c-1.898-0.448-3.783-0.889-5.681-1.343c-1.092,5.262-2.004,10.551-3.48,15.773C124.862,402.994,124.998,403.051,125.118,403.13z      "/>
				<path style="fill:#4D3D87;" d="M181.393,415.314c2.713,0.48,5.762,0.905,7.105,0.086c0.601-0.365,1.375-1.935,1.799-2.854      c1.442-3.09,1.555-6.664,0.106-9.486c-2.479-0.914-4.993-1.72-7.526-2.474C184.166,405.707,185.09,410.777,181.393,415.314z"/>
			</g>
		</g>
		<g>
			<g>
				<path style="fill-rule:evenodd;clip-rule:evenodd;fill:#FFFFFF;" d="M171.506,405.343c1.515,2.78-7.527,1.691-7.47-0.513      c0.069-2.575,5.806-0.937,7.292,0.249C171.427,405.158,171.451,405.239,171.506,405.343z"/>
				<path style="fill-rule:evenodd;clip-rule:evenodd;fill:#FFFFFF;" d="M160.837,402.789c0.84,2.349-6.802,1.765-6.144-0.614      C155.188,400.372,160.257,401.17,160.837,402.789z"/>
			</g>
			<g>
				<path style="fill-rule:evenodd;clip-rule:evenodd;fill:#FFFFFF;" d="M59.267,374.958c2.095,0.214,5.358,0.919,5.338,2.154      c-0.022,1.58-2.196,1.05-3.884,0.759c-1.686-0.286-3.773-0.69-3.638-1.944C57.226,374.551,58.446,374.871,59.267,374.958z"/>
				<path style="fill-rule:evenodd;clip-rule:evenodd;fill:#FFFFFF;" d="M68.736,379.709c1.57,0.066,3.056,0.695,2.869,1.774      c-0.323,1.814-5.491,0.961-5.057-0.804C66.712,380.005,67.432,379.655,68.736,379.709z"/>
			</g>
		</g>
	</g>
</g>















</svg>
