<svg height="512" viewBox="0 0 64 64" width="512" xmlns="http://www.w3.org/2000/svg"><g id="workhome-virus-covid19-coronavirus-home"><path d="m10 19.77v41.23h40v-41.23l-20-10.77z" fill="#57a4ff"/><path d="m20 52h-10v9h40v-39a30 30 0 0 1 -30 30z" fill="#2488ff"/><path d="m55 48h-1.683a6.988 6.988 0 0 1 -12.634 0h-1.683a6 6 0 0 0 -6 6v7h28v-7a6 6 0 0 0 -6-6z" fill="#006df0"/><path d="m55 48h-1a6 6 0 0 1 6 6v7h1v-7a6 6 0 0 0 -6-6z" fill="#005ece"/><path d="m51 24h-4a2 2 0 0 0 -2 2v1a2 2 0 0 0 -2-2h-2a2 2 0 0 0 -2 2v8h16v-7a4 4 0 0 0 -4-4z" fill="#58595b"/><path d="m47 58v-1h-12.889l.889 4h9a3 3 0 0 0 3-3z" fill="#58595b"/><path d="m6.88 21.45 23.12-12.45 23.12 12.45a2.506 2.506 0 0 0 2.75-4.19l-25.87-14.26-25.87 14.26a2.506 2.506 0 0 0 2.75 4.19z" fill="#d80027"/><path d="m31.348 44.566a2 2 0 0 0 -1.948-1.566h-21.907a2 2 0 0 0 -1.952 2.434l3.111 14a2 2 0 0 0 1.948 1.566h24.4z" fill="#a7a9ac"/><path d="m31.638 45.869a13.49 13.49 0 0 1 -13.467 14.131h-9.293a2 2 0 0 0 1.722 1h24.4z" fill="#939598"/><path d="m32 21h-16a2 2 0 0 0 -2 2v10a2 2 0 0 0 2 2h6l4.97 4 .03-4h5a2 2 0 0 0 2-2v-10a2 2 0 0 0 -2-2z" fill="#ffcd00"/><path d="m47 52a6.992 6.992 0 0 0 6.317-4h-1.317a2 2 0 0 1 -2-2v-1.809a5.967 5.967 0 0 1 -6 0v1.809a2 2 0 0 1 -2 2h-1.317a6.992 6.992 0 0 0 6.317 4z" fill="#ffac96"/><path d="m50 45.191v-1a5.967 5.967 0 0 1 -6 0v1a5.967 5.967 0 0 0 6 0z" fill="#ff9478"/><circle cx="20" cy="52" fill="#f1f2f2" r="2"/><path d="m43 25h-2a2 2 0 0 0 -2 2v8h6v-8a2 2 0 0 0 -2-2z" fill="#6d6e71"/><path d="m40 33a2.006 2.006 0 0 0 -2 2v1a2.006 2.006 0 0 0 2 2h1v-5z" fill="#ffac96"/><path d="m54 38a2.006 2.006 0 0 0 2-2v-1a2.006 2.006 0 0 0 -2-2h-1v5z" fill="#ffac96"/><path d="m52 31h-4.1a3.99 3.99 0 0 1 -1.854-.456l-1.038-.544-1.11.565a4 4 0 0 1 -1.814.435h-.084a1 1 0 0 0 -1 1v7a6 6 0 0 0 12 0v-7a1 1 0 0 0 -1-1z" fill="#ffbcab"/><path d="m49 37a1 1 0 0 0 1-1v-1a1 1 0 0 0 -2 0v1a1 1 0 0 0 1 1z" fill="#6d6e71"/><path d="m45 37a1 1 0 0 0 1-1v-1a1 1 0 0 0 -2 0v1a1 1 0 0 0 1 1z" fill="#6d6e71"/><path d="m48.293 39.293a1.831 1.831 0 0 1 -2.586 0 1 1 0 0 0 -1.414 1.414 3.831 3.831 0 0 0 5.414 0 1 1 0 0 0 -1.414-1.414z" fill="#6d6e71"/><g fill="#ff5023"><path d="m18 26h1a1 1 0 0 0 0-2h-1a1 1 0 0 0 0 2z"/><path d="m22 26h8a1 1 0 0 0 0-2h-8a1 1 0 0 0 0 2z"/><path d="m22 29h8a1 1 0 0 0 0-2h-8a1 1 0 0 0 0 2z"/><path d="m18 29h1a1 1 0 0 0 0-2h-1a1 1 0 0 0 0 2z"/><path d="m18 32h1a1 1 0 0 0 0-2h-1a1 1 0 0 0 0 2z"/><path d="m22 32h8a1 1 0 0 0 0-2h-8a1 1 0 0 0 0 2z"/></g><path d="m55 54a1 1 0 0 1 1 1v6a0 0 0 0 1 0 0h-2a0 0 0 0 1 0 0v-6a1 1 0 0 1 1-1z" fill="#005ece"/><path d="m38 54h2a0 0 0 0 1 0 0v2a1 1 0 0 1 -1 1 1 1 0 0 1 -1-1v-2a0 0 0 0 1 0 0z" fill="#005ece" transform="matrix(-1 0 0 -1 78 111)"/></g></svg>